<mxfile host="app.diagrams.net" agent="Mozilla/5.0 (X11; Linux x86_64; rv:131.0) Gecko/20100101 Firefox/131.0" version="24.8.3">
  <diagram name="Page-1" id="ReOFKRwcaXtwJubWQJ1l">
    <mxGraphModel dx="2603" dy="875" grid="1" gridSize="10" guides="1" tooltips="1" connect="1" arrows="1" fold="1" page="1" pageScale="1" pageWidth="827" pageHeight="1169" math="0" shadow="0">
      <root>
        <mxCell id="0" />
        <mxCell id="1" parent="0" />
        <mxCell id="fQ8Rs3X7q6bv40eJuwcE-1" value="&lt;div style=&quot;font-size: 18px;&quot; align=&quot;left&quot;&gt;&lt;ul&gt;&lt;li&gt;Create user with or without password&lt;br&gt;&lt;/li&gt;&lt;li&gt;Change userâ€™s password&lt;/li&gt;&lt;li&gt;delete user&lt;/li&gt;&lt;li&gt;Create Group&lt;/li&gt;&lt;li&gt;add group for a user&lt;/li&gt;&lt;li&gt;delete group for a user&lt;/li&gt;&lt;li&gt;delete group (and check if group is used by another user)&lt;/li&gt;&lt;/ul&gt;&lt;/div&gt;" style="text;html=1;align=left;verticalAlign=middle;whiteSpace=wrap;rounded=0;" vertex="1" parent="1">
          <mxGeometry x="10" y="10" width="450" height="190" as="geometry" />
        </mxCell>
        <mxCell id="fQ8Rs3X7q6bv40eJuwcE-2" value="Entry point" style="rounded=1;whiteSpace=wrap;html=1;" vertex="1" parent="1">
          <mxGeometry x="500" y="140" width="120" height="60" as="geometry" />
        </mxCell>
        <mxCell id="fQ8Rs3X7q6bv40eJuwcE-3" value="&lt;div&gt;&lt;font style=&quot;font-size: 14px;&quot;&gt;check for sudo access&lt;/font&gt;&lt;/div&gt;" style="rounded=0;whiteSpace=wrap;html=1;" vertex="1" parent="1">
          <mxGeometry x="480" y="230" width="160" height="70" as="geometry" />
        </mxCell>
        <mxCell id="fQ8Rs3X7q6bv40eJuwcE-4" value="Ask user for option to do" style="shape=parallelogram;perimeter=parallelogramPerimeter;whiteSpace=wrap;html=1;fixedSize=1;" vertex="1" parent="1">
          <mxGeometry x="465" y="330" width="190" height="80" as="geometry" />
        </mxCell>
        <mxCell id="fQ8Rs3X7q6bv40eJuwcE-5" value="&lt;div&gt;Create user&lt;/div&gt;" style="rhombus;whiteSpace=wrap;html=1;" vertex="1" parent="1">
          <mxGeometry x="372.5" y="460" width="190" height="80" as="geometry" />
        </mxCell>
        <mxCell id="fQ8Rs3X7q6bv40eJuwcE-6" value="create group" style="rhombus;whiteSpace=wrap;html=1;" vertex="1" parent="1">
          <mxGeometry x="182.5" y="460" width="190" height="80" as="geometry" />
        </mxCell>
        <mxCell id="fQ8Rs3X7q6bv40eJuwcE-7" value="change password" style="rhombus;whiteSpace=wrap;html=1;" vertex="1" parent="1">
          <mxGeometry x="562.5" y="460" width="190" height="80" as="geometry" />
        </mxCell>
        <mxCell id="fQ8Rs3X7q6bv40eJuwcE-8" value="add user to group" style="rhombus;whiteSpace=wrap;html=1;" vertex="1" parent="1">
          <mxGeometry x="937.5" y="460" width="190" height="80" as="geometry" />
        </mxCell>
        <mxCell id="fQ8Rs3X7q6bv40eJuwcE-9" value="delete user" style="rhombus;whiteSpace=wrap;html=1;" vertex="1" parent="1">
          <mxGeometry x="747.5" y="460" width="190" height="80" as="geometry" />
        </mxCell>
        <mxCell id="fQ8Rs3X7q6bv40eJuwcE-10" value="delete group" style="rhombus;whiteSpace=wrap;html=1;" vertex="1" parent="1">
          <mxGeometry x="1127.5" y="460" width="190" height="80" as="geometry" />
        </mxCell>
        <mxCell id="fQ8Rs3X7q6bv40eJuwcE-11" value="&lt;div&gt;quit&lt;/div&gt;" style="rhombus;whiteSpace=wrap;html=1;" vertex="1" parent="1">
          <mxGeometry x="-197.5" y="460" width="190" height="80" as="geometry" />
        </mxCell>
        <mxCell id="fQ8Rs3X7q6bv40eJuwcE-13" value="delete user from group" style="rhombus;whiteSpace=wrap;html=1;" vertex="1" parent="1">
          <mxGeometry x="-7.5" y="460" width="190" height="80" as="geometry" />
        </mxCell>
        <mxCell id="fQ8Rs3X7q6bv40eJuwcE-14" value="" style="endArrow=classic;html=1;rounded=0;exitX=0.5;exitY=1;exitDx=0;exitDy=0;entryX=0.5;entryY=0;entryDx=0;entryDy=0;" edge="1" parent="1" source="fQ8Rs3X7q6bv40eJuwcE-4" target="fQ8Rs3X7q6bv40eJuwcE-7">
          <mxGeometry width="50" height="50" relative="1" as="geometry">
            <mxPoint x="560" y="410" as="sourcePoint" />
            <mxPoint x="600" y="370" as="targetPoint" />
          </mxGeometry>
        </mxCell>
        <mxCell id="fQ8Rs3X7q6bv40eJuwcE-15" value="" style="endArrow=classic;html=1;rounded=0;exitX=0.5;exitY=1;exitDx=0;exitDy=0;entryX=0.5;entryY=0;entryDx=0;entryDy=0;" edge="1" parent="1" source="fQ8Rs3X7q6bv40eJuwcE-4" target="fQ8Rs3X7q6bv40eJuwcE-5">
          <mxGeometry width="50" height="50" relative="1" as="geometry">
            <mxPoint x="550" y="420" as="sourcePoint" />
            <mxPoint x="600" y="370" as="targetPoint" />
          </mxGeometry>
        </mxCell>
        <mxCell id="fQ8Rs3X7q6bv40eJuwcE-16" value="" style="endArrow=classic;html=1;rounded=0;exitX=0.901;exitY=0.98;exitDx=0;exitDy=0;exitPerimeter=0;entryX=0.5;entryY=0;entryDx=0;entryDy=0;" edge="1" parent="1" source="fQ8Rs3X7q6bv40eJuwcE-4" target="fQ8Rs3X7q6bv40eJuwcE-9">
          <mxGeometry width="50" height="50" relative="1" as="geometry">
            <mxPoint x="730" y="420" as="sourcePoint" />
            <mxPoint x="780" y="370" as="targetPoint" />
          </mxGeometry>
        </mxCell>
        <mxCell id="fQ8Rs3X7q6bv40eJuwcE-17" value="" style="endArrow=classic;html=1;rounded=0;exitX=0;exitY=1;exitDx=0;exitDy=0;entryX=0.5;entryY=0;entryDx=0;entryDy=0;" edge="1" parent="1" source="fQ8Rs3X7q6bv40eJuwcE-4" target="fQ8Rs3X7q6bv40eJuwcE-6">
          <mxGeometry width="50" height="50" relative="1" as="geometry">
            <mxPoint x="660" y="420" as="sourcePoint" />
            <mxPoint x="710" y="370" as="targetPoint" />
          </mxGeometry>
        </mxCell>
        <mxCell id="fQ8Rs3X7q6bv40eJuwcE-18" value="" style="endArrow=classic;html=1;rounded=0;exitX=0;exitY=0.5;exitDx=0;exitDy=0;entryX=0.5;entryY=0;entryDx=0;entryDy=0;" edge="1" parent="1" source="fQ8Rs3X7q6bv40eJuwcE-4" target="fQ8Rs3X7q6bv40eJuwcE-13">
          <mxGeometry width="50" height="50" relative="1" as="geometry">
            <mxPoint x="277" y="400" as="sourcePoint" />
            <mxPoint x="90" y="450" as="targetPoint" />
          </mxGeometry>
        </mxCell>
        <mxCell id="fQ8Rs3X7q6bv40eJuwcE-19" value="" style="endArrow=classic;html=1;rounded=0;entryX=0.5;entryY=0;entryDx=0;entryDy=0;exitX=0.114;exitY=0;exitDx=0;exitDy=0;exitPerimeter=0;" edge="1" parent="1" source="fQ8Rs3X7q6bv40eJuwcE-4" target="fQ8Rs3X7q6bv40eJuwcE-11">
          <mxGeometry width="50" height="50" relative="1" as="geometry">
            <mxPoint x="250" y="420" as="sourcePoint" />
            <mxPoint x="300" y="370" as="targetPoint" />
          </mxGeometry>
        </mxCell>
        <mxCell id="fQ8Rs3X7q6bv40eJuwcE-20" value="" style="endArrow=classic;html=1;rounded=0;exitX=1;exitY=0.5;exitDx=0;exitDy=0;entryX=0.5;entryY=0;entryDx=0;entryDy=0;" edge="1" parent="1" source="fQ8Rs3X7q6bv40eJuwcE-4" target="fQ8Rs3X7q6bv40eJuwcE-8">
          <mxGeometry width="50" height="50" relative="1" as="geometry">
            <mxPoint x="870" y="350" as="sourcePoint" />
            <mxPoint x="920" y="300" as="targetPoint" />
          </mxGeometry>
        </mxCell>
        <mxCell id="fQ8Rs3X7q6bv40eJuwcE-21" value="" style="endArrow=classic;html=1;rounded=0;exitX=1;exitY=0;exitDx=0;exitDy=0;entryX=0.5;entryY=0;entryDx=0;entryDy=0;" edge="1" parent="1" source="fQ8Rs3X7q6bv40eJuwcE-4" target="fQ8Rs3X7q6bv40eJuwcE-10">
          <mxGeometry width="50" height="50" relative="1" as="geometry">
            <mxPoint x="870" y="350" as="sourcePoint" />
            <mxPoint x="920" y="300" as="targetPoint" />
          </mxGeometry>
        </mxCell>
        <mxCell id="fQ8Rs3X7q6bv40eJuwcE-22" value="" style="endArrow=classic;html=1;rounded=0;entryX=0.5;entryY=0;entryDx=0;entryDy=0;exitX=0.5;exitY=1;exitDx=0;exitDy=0;" edge="1" parent="1" source="fQ8Rs3X7q6bv40eJuwcE-3" target="fQ8Rs3X7q6bv40eJuwcE-4">
          <mxGeometry width="50" height="50" relative="1" as="geometry">
            <mxPoint x="520" y="350" as="sourcePoint" />
            <mxPoint x="570" y="300" as="targetPoint" />
          </mxGeometry>
        </mxCell>
        <mxCell id="fQ8Rs3X7q6bv40eJuwcE-23" value="" style="endArrow=classic;html=1;rounded=0;entryX=0.5;entryY=0;entryDx=0;entryDy=0;exitX=0.5;exitY=1;exitDx=0;exitDy=0;" edge="1" parent="1">
          <mxGeometry width="50" height="50" relative="1" as="geometry">
            <mxPoint x="559.8" y="200" as="sourcePoint" />
            <mxPoint x="559.8" y="230" as="targetPoint" />
          </mxGeometry>
        </mxCell>
        <mxCell id="fQ8Rs3X7q6bv40eJuwcE-24" value="passwd" style="rounded=0;whiteSpace=wrap;html=1;" vertex="1" parent="1">
          <mxGeometry x="597.5" y="560" width="120" height="60" as="geometry" />
        </mxCell>
        <mxCell id="fQ8Rs3X7q6bv40eJuwcE-25" value="deluser" style="rounded=0;whiteSpace=wrap;html=1;" vertex="1" parent="1">
          <mxGeometry x="782.5" y="560" width="120" height="60" as="geometry" />
        </mxCell>
        <mxCell id="fQ8Rs3X7q6bv40eJuwcE-26" value="check if another user is in group" style="rounded=0;whiteSpace=wrap;html=1;" vertex="1" parent="1">
          <mxGeometry x="1162.5" y="560" width="120" height="60" as="geometry" />
        </mxCell>
        <mxCell id="fQ8Rs3X7q6bv40eJuwcE-27" value="&lt;div&gt;delgroup&lt;/div&gt;" style="rounded=0;whiteSpace=wrap;html=1;" vertex="1" parent="1">
          <mxGeometry x="1162.5" y="640" width="120" height="60" as="geometry" />
        </mxCell>
        <mxCell id="fQ8Rs3X7q6bv40eJuwcE-28" value="&lt;div&gt;useradd&lt;/div&gt;" style="rounded=0;whiteSpace=wrap;html=1;" vertex="1" parent="1">
          <mxGeometry x="407.5" y="560" width="120" height="60" as="geometry" />
        </mxCell>
        <mxCell id="fQ8Rs3X7q6bv40eJuwcE-29" value="usermod -a -G" style="rounded=0;whiteSpace=wrap;html=1;" vertex="1" parent="1">
          <mxGeometry x="972.5" y="560" width="120" height="60" as="geometry" />
        </mxCell>
        <mxCell id="fQ8Rs3X7q6bv40eJuwcE-30" value="&lt;div&gt;groupadd&lt;/div&gt;" style="rounded=0;whiteSpace=wrap;html=1;" vertex="1" parent="1">
          <mxGeometry x="217.5" y="560" width="120" height="60" as="geometry" />
        </mxCell>
        <mxCell id="fQ8Rs3X7q6bv40eJuwcE-32" value="&lt;p&gt;gpasswd -d&lt;/p&gt;" style="rounded=0;whiteSpace=wrap;html=1;" vertex="1" parent="1">
          <mxGeometry x="27.5" y="560" width="120" height="60" as="geometry" />
        </mxCell>
        <mxCell id="fQ8Rs3X7q6bv40eJuwcE-33" value="" style="endArrow=none;html=1;rounded=0;fontFamily=Helvetica;fontSize=12;fontColor=default;entryX=0.5;entryY=1;entryDx=0;entryDy=0;" edge="1" parent="1" target="fQ8Rs3X7q6bv40eJuwcE-27">
          <mxGeometry width="50" height="50" relative="1" as="geometry">
            <mxPoint x="1223" y="760" as="sourcePoint" />
            <mxPoint x="990" y="740" as="targetPoint" />
          </mxGeometry>
        </mxCell>
        <mxCell id="fQ8Rs3X7q6bv40eJuwcE-34" value="" style="endArrow=none;html=1;rounded=0;fontFamily=Helvetica;fontSize=12;fontColor=default;entryX=0.5;entryY=1;entryDx=0;entryDy=0;" edge="1" parent="1">
          <mxGeometry width="50" height="50" relative="1" as="geometry">
            <mxPoint x="1030" y="760" as="sourcePoint" />
            <mxPoint x="1032.08" y="620" as="targetPoint" />
          </mxGeometry>
        </mxCell>
        <mxCell id="fQ8Rs3X7q6bv40eJuwcE-35" value="" style="endArrow=none;html=1;rounded=0;fontFamily=Helvetica;fontSize=12;fontColor=default;entryX=0.5;entryY=1;entryDx=0;entryDy=0;" edge="1" parent="1">
          <mxGeometry width="50" height="50" relative="1" as="geometry">
            <mxPoint x="841.46" y="760" as="sourcePoint" />
            <mxPoint x="843.54" y="620" as="targetPoint" />
          </mxGeometry>
        </mxCell>
        <mxCell id="fQ8Rs3X7q6bv40eJuwcE-36" value="" style="endArrow=none;html=1;rounded=0;fontFamily=Helvetica;fontSize=12;fontColor=default;entryX=0.5;entryY=1;entryDx=0;entryDy=0;" edge="1" parent="1">
          <mxGeometry width="50" height="50" relative="1" as="geometry">
            <mxPoint x="655" y="760" as="sourcePoint" />
            <mxPoint x="657.0799999999999" y="620" as="targetPoint" />
          </mxGeometry>
        </mxCell>
        <mxCell id="fQ8Rs3X7q6bv40eJuwcE-37" value="" style="endArrow=none;html=1;rounded=0;fontFamily=Helvetica;fontSize=12;fontColor=default;entryX=0.5;entryY=1;entryDx=0;entryDy=0;" edge="1" parent="1">
          <mxGeometry width="50" height="50" relative="1" as="geometry">
            <mxPoint x="466.46000000000004" y="760" as="sourcePoint" />
            <mxPoint x="468.53999999999996" y="620" as="targetPoint" />
          </mxGeometry>
        </mxCell>
        <mxCell id="fQ8Rs3X7q6bv40eJuwcE-38" value="" style="endArrow=none;html=1;rounded=0;fontFamily=Helvetica;fontSize=12;fontColor=default;entryX=0.5;entryY=1;entryDx=0;entryDy=0;" edge="1" parent="1">
          <mxGeometry width="50" height="50" relative="1" as="geometry">
            <mxPoint x="276.46" y="760" as="sourcePoint" />
            <mxPoint x="278.5399999999999" y="620" as="targetPoint" />
          </mxGeometry>
        </mxCell>
        <mxCell id="fQ8Rs3X7q6bv40eJuwcE-39" value="" style="endArrow=none;html=1;rounded=0;fontFamily=Helvetica;fontSize=12;fontColor=default;entryX=0.5;entryY=1;entryDx=0;entryDy=0;" edge="1" parent="1">
          <mxGeometry width="50" height="50" relative="1" as="geometry">
            <mxPoint x="86.45999999999998" y="760" as="sourcePoint" />
            <mxPoint x="88.5399999999999" y="620" as="targetPoint" />
          </mxGeometry>
        </mxCell>
        <mxCell id="fQ8Rs3X7q6bv40eJuwcE-40" value="" style="endArrow=none;html=1;rounded=0;fontFamily=Helvetica;fontSize=12;fontColor=default;entryX=0.5;entryY=1;entryDx=0;entryDy=0;" edge="1" parent="1" target="fQ8Rs3X7q6bv40eJuwcE-11">
          <mxGeometry width="50" height="50" relative="1" as="geometry">
            <mxPoint x="-103.54000000000002" y="760" as="sourcePoint" />
            <mxPoint x="-101.4600000000001" y="620" as="targetPoint" />
          </mxGeometry>
        </mxCell>
        <mxCell id="fQ8Rs3X7q6bv40eJuwcE-41" value="" style="endArrow=classic;html=1;rounded=0;fontFamily=Helvetica;fontSize=12;fontColor=default;exitX=0.5;exitY=1;exitDx=0;exitDy=0;entryX=0.5;entryY=0;entryDx=0;entryDy=0;" edge="1" parent="1" source="fQ8Rs3X7q6bv40eJuwcE-10" target="fQ8Rs3X7q6bv40eJuwcE-26">
          <mxGeometry width="50" height="50" relative="1" as="geometry">
            <mxPoint x="1260" y="560" as="sourcePoint" />
            <mxPoint x="1310" y="510" as="targetPoint" />
          </mxGeometry>
        </mxCell>
        <mxCell id="fQ8Rs3X7q6bv40eJuwcE-42" value="" style="endArrow=classic;html=1;rounded=0;fontFamily=Helvetica;fontSize=12;fontColor=default;exitX=0.5;exitY=1;exitDx=0;exitDy=0;entryX=0.5;entryY=0;entryDx=0;entryDy=0;" edge="1" parent="1">
          <mxGeometry width="50" height="50" relative="1" as="geometry">
            <mxPoint x="1032.3" y="540" as="sourcePoint" />
            <mxPoint x="1032.3" y="560" as="targetPoint" />
          </mxGeometry>
        </mxCell>
        <mxCell id="fQ8Rs3X7q6bv40eJuwcE-43" value="" style="endArrow=classic;html=1;rounded=0;fontFamily=Helvetica;fontSize=12;fontColor=default;exitX=0.5;exitY=1;exitDx=0;exitDy=0;entryX=0.5;entryY=0;entryDx=0;entryDy=0;" edge="1" parent="1">
          <mxGeometry width="50" height="50" relative="1" as="geometry">
            <mxPoint x="842.3" y="540" as="sourcePoint" />
            <mxPoint x="842.3" y="560" as="targetPoint" />
          </mxGeometry>
        </mxCell>
        <mxCell id="fQ8Rs3X7q6bv40eJuwcE-44" value="" style="endArrow=classic;html=1;rounded=0;fontFamily=Helvetica;fontSize=12;fontColor=default;exitX=0.5;exitY=1;exitDx=0;exitDy=0;entryX=0.5;entryY=0;entryDx=0;entryDy=0;" edge="1" parent="1">
          <mxGeometry width="50" height="50" relative="1" as="geometry">
            <mxPoint x="657.3" y="540" as="sourcePoint" />
            <mxPoint x="657.3" y="560" as="targetPoint" />
          </mxGeometry>
        </mxCell>
        <mxCell id="fQ8Rs3X7q6bv40eJuwcE-45" value="" style="endArrow=classic;html=1;rounded=0;fontFamily=Helvetica;fontSize=12;fontColor=default;exitX=0.5;exitY=1;exitDx=0;exitDy=0;entryX=0.5;entryY=0;entryDx=0;entryDy=0;" edge="1" parent="1">
          <mxGeometry width="50" height="50" relative="1" as="geometry">
            <mxPoint x="467.29999999999995" y="540" as="sourcePoint" />
            <mxPoint x="467.29999999999995" y="560" as="targetPoint" />
          </mxGeometry>
        </mxCell>
        <mxCell id="fQ8Rs3X7q6bv40eJuwcE-47" value="" style="endArrow=classic;html=1;rounded=0;fontFamily=Helvetica;fontSize=12;fontColor=default;exitX=0.5;exitY=1;exitDx=0;exitDy=0;entryX=0.5;entryY=0;entryDx=0;entryDy=0;" edge="1" parent="1">
          <mxGeometry width="50" height="50" relative="1" as="geometry">
            <mxPoint x="277.29999999999995" y="540" as="sourcePoint" />
            <mxPoint x="277.29999999999995" y="560" as="targetPoint" />
          </mxGeometry>
        </mxCell>
        <mxCell id="fQ8Rs3X7q6bv40eJuwcE-48" value="" style="endArrow=classic;html=1;rounded=0;fontFamily=Helvetica;fontSize=12;fontColor=default;exitX=0.5;exitY=1;exitDx=0;exitDy=0;entryX=0.5;entryY=0;entryDx=0;entryDy=0;" edge="1" parent="1">
          <mxGeometry width="50" height="50" relative="1" as="geometry">
            <mxPoint x="87.29999999999995" y="540" as="sourcePoint" />
            <mxPoint x="87.29999999999995" y="560" as="targetPoint" />
          </mxGeometry>
        </mxCell>
        <mxCell id="fQ8Rs3X7q6bv40eJuwcE-49" value="" style="endArrow=classic;html=1;rounded=0;fontFamily=Helvetica;fontSize=12;fontColor=default;exitX=0.5;exitY=1;exitDx=0;exitDy=0;entryX=0.5;entryY=0;entryDx=0;entryDy=0;" edge="1" parent="1">
          <mxGeometry width="50" height="50" relative="1" as="geometry">
            <mxPoint x="1222.3" y="620" as="sourcePoint" />
            <mxPoint x="1222.3" y="640" as="targetPoint" />
          </mxGeometry>
        </mxCell>
        <mxCell id="fQ8Rs3X7q6bv40eJuwcE-50" value="" style="endArrow=none;html=1;rounded=0;fontFamily=Helvetica;fontSize=12;fontColor=default;" edge="1" parent="1">
          <mxGeometry width="50" height="50" relative="1" as="geometry">
            <mxPoint x="-240" y="760" as="sourcePoint" />
            <mxPoint x="1220" y="760" as="targetPoint" />
          </mxGeometry>
        </mxCell>
        <mxCell id="fQ8Rs3X7q6bv40eJuwcE-51" value="" style="endArrow=none;html=1;rounded=0;fontFamily=Helvetica;fontSize=12;fontColor=default;" edge="1" parent="1">
          <mxGeometry width="50" height="50" relative="1" as="geometry">
            <mxPoint x="-240" y="760" as="sourcePoint" />
            <mxPoint x="-240" y="320" as="targetPoint" />
          </mxGeometry>
        </mxCell>
        <mxCell id="fQ8Rs3X7q6bv40eJuwcE-52" value="" style="endArrow=none;html=1;rounded=0;fontFamily=Helvetica;fontSize=12;fontColor=default;" edge="1" parent="1">
          <mxGeometry width="50" height="50" relative="1" as="geometry">
            <mxPoint x="-240" y="320" as="sourcePoint" />
            <mxPoint x="560" y="310" as="targetPoint" />
          </mxGeometry>
        </mxCell>
      </root>
    </mxGraphModel>
  </diagram>
</mxfile>
